<svg width="92" height="45" viewBox="0 0 92 45" fill="none" xmlns="http://www.w3.org/2000/svg">
<path d="M3.45968 27.3907C3.7258 27.3408 4.02519 27.3076 4.35784 27.3076C4.40774 25.5611 5.4057 22.6671 6.47018 19.6732C5.47223 19.5235 4.62396 19.5235 4.10835 19.8728C3.74244 18.4257 5.12294 18.143 7.01906 18.1763C8.00038 15.3986 8.94844 12.6875 9.14803 10.8745C7.56794 10.7747 6.1708 10.9411 5.28927 11.939C5.00651 12.2384 4.24141 8.46282 7.701 7.83078C10.5119 7.31517 16.4996 9.61047 18.3791 6.96588C18.6619 6.58333 18.8947 10.0429 17.0153 10.9743C15.8177 11.5565 14.2376 11.49 12.591 11.2904C12.3581 12.8871 11.4932 15.5317 10.5951 18.4091C12.5577 18.5422 14.2875 18.5255 14.6534 17.5941C15.2356 21.0703 12.7573 20.9539 9.9963 20.3884C9.2312 22.9498 8.51599 25.5445 8.24987 27.6568C10.6616 27.9396 13.0733 28.0394 14.1378 26.5258C14.4206 26.1433 14.6534 29.6029 12.7739 30.5177C9.48068 32.1476 3.40978 28.8211 1.04795 31.4823C0.765199 31.7817 9.88767e-05 28.0061 3.45968 27.3907ZM17.481 17.1617C17.4643 17.0951 21.1568 16.7625 21.0902 18.8915C21.0403 20.2553 17.8469 27.241 18.5122 29.4864C20.1422 27.4074 24.4833 17.1617 24.4833 17.1617C24.4667 17.0951 28.1591 16.7625 28.0759 18.8915C28.026 20.272 25.2318 25.8439 25.5145 29.5862C26.7952 28.239 28.3421 24.5299 28.6248 23.8313C28.6581 23.7648 28.7246 23.7316 28.7911 23.7316C28.9242 23.7316 29.0074 23.848 28.9741 23.9644C28.5749 25.1952 26.9117 30.2682 26.0468 30.7838C25.0488 31.3992 22.3377 30.368 22.0882 29.2369C21.6059 27.1412 23.635 22.1515 24.317 19.141C22.9864 22.6172 19.9093 30.4179 18.8448 30.8836C17.8635 31.2994 15.2023 30.4511 14.9861 29.1205C14.5869 26.7088 17.9966 19.0911 17.481 17.1617ZM24.8825 38.9171C24.2005 34.7257 30.5542 20.6213 29.8889 17.1284C29.8723 17.0619 33.7144 17.1284 33.4815 19.2407C33.2653 21.2533 30.4045 29.187 29.0573 35.0916C31.469 26.1433 36.1095 17.6773 36.8247 17.2615C37.4734 16.8789 39.4693 17.4444 40.2843 18.8748C41.382 20.8042 39.0535 30.1185 35.1947 30.9002C34.3298 31.0832 32.284 29.8025 31.8682 29.2868C30.4378 32.9626 29.1072 37.0709 28.4751 40.8631C28.392 41.2623 25.1652 40.6469 24.8825 38.9171ZM37.174 18.3093C36.9578 18.2262 34.3963 22.8667 32.0511 28.8045C35.1282 30.5343 37.9557 18.6253 37.174 18.3093ZM39.9516 28.9875C39.2697 24.7794 45.7065 10.1926 45.2741 7.08231C45.2574 7.01578 48.7835 7.19874 48.5507 9.31108C48.3178 11.49 44.9414 20.6712 43.8104 26.6589C45.4237 22.6671 48.2347 16.9621 49.848 17.1118C50.7794 17.1949 52.6589 18.0765 52.8253 18.642C53.291 20.2054 50.031 27.3408 49.9644 29.7027C51.2618 28.4552 52.8918 24.5465 53.1745 23.8313C53.2078 23.7648 53.2743 23.7316 53.3409 23.7316C53.4739 23.7316 53.5571 23.848 53.5238 23.9644C53.1246 25.1952 51.2951 30.8337 50.5632 30.9335C49.1162 31.1331 46.6712 30.0852 46.4716 28.7712C46.2221 26.9915 49.0663 21.22 49.349 18.4257C48.5174 18.2927 43.511 28.3055 43.5443 30.8836C43.6441 31.3493 40.251 30.7505 39.9516 28.9875ZM52.975 28.7546C51.9936 25.977 54.2224 19.0245 56.7339 17.4112C57.5988 16.8457 59.944 16.9953 60.6925 17.4943C61.3412 17.9101 60.9253 18.3093 60.9253 18.3093C58.2142 17.0452 55.0208 28.8211 56.2682 29.9688C57.7152 31.2994 61.1582 20.405 59.0791 19.9726C59.0791 19.9726 60.0438 18.6087 60.8754 18.7085C63.7529 19.0911 61.574 28.871 57.5489 30.7671C56.4512 31.2828 53.8399 31.183 52.975 28.7546ZM61.6904 29.1538C61.258 26.5092 64.5346 19.0578 64.0024 17.1284C63.9857 17.0619 67.8778 16.7625 67.8112 18.8915C67.7613 20.089 65.649 24.4468 65.2831 28.0228C66.5472 24.0975 69.4412 16.9454 71.2376 17.1118C72.169 17.1949 73.799 17.96 73.9653 18.5089C74.1815 19.2407 71.9528 22.7336 72.5515 24.8958C67.595 24.6796 70.8051 19.0744 70.7386 18.4257C69.9069 18.2927 65.4494 28.2057 65.466 30.8004C65.4827 30.9002 65.3662 30.9667 65.2831 30.9501C64.5679 30.8669 61.9067 30.4844 61.6904 29.1538ZM78.9218 16.8623C74.1649 16.2302 77.192 13.5524 76.9924 11.7893C82.1485 12.621 78.506 14.4007 78.9218 16.8623ZM72.5349 29.1538C72.0692 26.609 75.4955 19.0578 74.9799 17.1284C74.9633 17.0619 78.822 16.7625 78.7555 18.8915C78.7056 20.272 75.9446 25.7607 76.1774 29.5031C77.4415 28.0893 78.9385 24.5133 79.2212 23.8313C79.2378 23.7648 79.3044 23.7316 79.3875 23.7316C79.504 23.7316 79.5871 23.848 79.5539 23.9644C79.1713 25.1952 77.3584 30.5177 76.56 30.9002C75.745 31.2661 72.7511 30.4012 72.5349 29.1538ZM82.4812 30.8836C81.8824 31.2994 79.1879 30.5676 78.5725 29.4532C77.7742 28.0228 79.7701 20.7709 81.5997 18.4257C83.0301 16.6128 86.1237 17.0619 86.8556 17.4943C87.0385 17.5941 87.1051 17.6939 87.0053 17.9767C86.8888 18.2927 86.656 18.2262 86.2901 18.1264C84.4272 17.644 81.6329 27.8564 81.8159 29.9355L87.7537 17.2947C87.9533 16.7459 91.4794 17.6606 91.1468 18.3592C90.8141 19.0578 88.3858 27.3408 88.3192 29.7027C89.6166 28.4552 91.2632 24.5465 91.546 23.8313C91.5792 23.7648 91.6458 23.7316 91.7123 23.7316C91.8287 23.7316 91.9285 23.848 91.8786 23.9644C91.4961 25.1952 89.6665 30.8337 88.9347 30.9335C87.471 31.1331 85.026 30.0852 84.843 28.7712C84.6767 27.6568 85.5915 24.2139 86.4398 21.3864C84.9761 25.1786 82.8139 30.6507 82.4812 30.8836Z" fill="#3C4242"/>
<path d="M0.567383 33.6259H22.9707" stroke="#333333" stroke-width="0.420324" stroke-miterlimit="10" stroke-linecap="round" stroke-linejoin="round"/>
<path d="M32.553 33.6259H91.6034" stroke="#3C4242" stroke-width="0.420324" stroke-miterlimit="10" stroke-linecap="round" stroke-linejoin="round"/>
<path d="M40.5179 41.2617C40.3543 41.2617 40.1653 41.1972 39.9495 41.0689C39.7344 40.9398 39.5055 40.7693 39.2643 40.5565C39.0231 40.3438 38.7857 40.1126 38.5515 39.8621C38.3179 39.6125 38.1021 39.3636 37.9054 39.1155C37.7088 38.8682 37.5437 38.6477 37.41 38.4549L36.33 40.7862C36.2778 40.8999 36.1963 40.9805 36.085 41.0274C35.9736 41.0743 35.853 41.1027 35.7232 41.1127C35.5934 41.1227 35.4651 41.1273 35.3391 41.1273C35.4351 40.989 35.5342 40.83 35.6341 40.6518C35.7347 40.4736 35.853 40.2585 35.9905 40.0058C36.128 39.7531 36.2893 39.4466 36.4752 39.0848C36.6611 38.7238 36.8815 38.2913 37.1381 37.789C37.3939 37.2866 37.6965 36.6967 38.046 36.0184C38.0683 35.9785 38.0983 35.9232 38.1351 35.8517C38.172 35.7803 38.1912 35.7142 38.1912 35.6551C38.1912 35.6005 38.1728 35.5575 38.1351 35.5253C38.0983 35.493 38.0276 35.4769 37.9239 35.4769C37.7457 35.4769 37.5728 35.5253 37.4062 35.6213C37.2395 35.7173 37.0905 35.8402 36.9606 35.9892C36.8308 36.1375 36.7287 36.2911 36.6542 36.4493C36.5796 36.6076 36.5428 36.7489 36.5428 36.8726C36.5428 36.967 36.5612 37.0508 36.5981 37.1253C36.353 37.1253 36.1802 37.0846 36.0804 37.0032C35.9797 36.9217 35.9298 36.8211 35.9298 36.702C35.9298 36.5338 36.0035 36.3656 36.1526 36.1974C36.3008 36.0292 36.4921 35.874 36.7264 35.7334C36.9606 35.5921 37.2057 35.4799 37.4615 35.3954C37.7173 35.3117 37.9492 35.2695 38.1574 35.2695C38.3579 35.2695 38.4931 35.3063 38.5637 35.3809C38.6344 35.4554 38.6697 35.5368 38.6697 35.6259C38.6697 35.6804 38.6605 35.735 38.6421 35.7895C38.6237 35.844 38.6029 35.8963 38.5806 35.9454L37.6451 37.9649C37.7487 37.8658 37.8847 37.7744 38.0514 37.6899C38.2181 37.6061 38.4024 37.5094 38.6029 37.4003C38.9371 37.2221 39.295 37.0139 39.6775 36.7766C40.0601 36.5392 40.4257 36.2888 40.7744 36.0268C41.1232 35.7641 41.4128 35.5122 41.6432 35.2695C41.6801 35.2994 41.7062 35.3509 41.7215 35.4254C41.7361 35.4999 41.7438 35.5568 41.7438 35.5959C41.7438 35.7496 41.6493 35.9178 41.4596 36.1006C41.2699 36.2834 41.0233 36.4731 40.7191 36.6682C40.4149 36.8641 40.0808 37.0569 39.7167 37.2474C39.3526 37.4379 38.9947 37.6177 38.6421 37.7859C38.2895 37.9541 37.9715 38.1 37.6896 38.2237C37.9124 38.4764 38.1297 38.7161 38.341 38.9442C38.5522 39.1716 38.7827 39.3944 39.0315 39.6125C39.2804 39.8307 39.5715 40.0534 39.9057 40.2808C40.2398 40.5081 40.6446 40.7532 41.1193 41.0159C41.0671 41.0804 40.9857 41.1372 40.8743 41.1864C40.7629 41.2371 40.6438 41.2617 40.5179 41.2617Z" fill="#3C4242"/>
<path d="M46.4765 40.9796C46.0233 40.9796 45.6876 40.8882 45.4687 40.7046C45.2498 40.5218 45.14 40.3013 45.14 40.044C44.8204 40.3259 44.4533 40.5464 44.0377 40.7046C43.6221 40.8628 43.202 40.9419 42.7795 40.9419C42.3263 40.9419 41.9868 40.859 41.7602 40.6931C41.5336 40.5272 41.4207 40.3228 41.4207 40.0809C41.4207 39.8581 41.5044 39.6231 41.6711 39.3757C41.8385 39.1284 42.0613 38.8956 42.3393 38.6775C42.6174 38.4601 42.9239 38.2827 43.258 38.1467C43.5922 38.0107 43.9225 37.9424 44.2497 37.9424C44.4202 37.9424 44.5785 37.9723 44.7229 38.0315C44.868 38.0906 44.9403 38.212 44.9403 38.3956C44.9403 38.5838 44.8565 38.7604 44.6898 38.9264C44.5232 39.0923 44.3035 39.2398 44.0331 39.368C43.7619 39.4971 43.4647 39.6016 43.142 39.6837C42.8194 39.7659 42.4976 39.8159 42.1788 39.8358C42.1642 39.8858 42.1527 39.9326 42.145 39.9772C42.1373 40.0217 42.1335 40.064 42.1335 40.1031C42.1335 40.2022 42.1596 40.2998 42.2118 40.3966C42.2633 40.4934 42.3524 40.5725 42.4791 40.6339C42.6051 40.6961 42.7833 40.7269 43.0138 40.7269C43.4071 40.7269 43.7973 40.6339 44.1836 40.4488C44.5692 40.2629 44.9072 40.034 45.1968 39.7621C45.2636 39.5593 45.3827 39.3565 45.5532 39.153C45.7237 38.9502 45.9304 38.7658 46.1716 38.5999C46.4128 38.434 46.6747 38.3003 46.9566 38.1989C47.2385 38.0975 47.525 38.0468 47.8146 38.0468C47.9851 38.0468 48.1434 38.0768 48.2878 38.136C48.4322 38.1951 48.5052 38.3165 48.5052 38.5C48.5052 38.7528 48.3769 38.974 48.1211 39.1645C47.8653 39.355 47.5365 39.5071 47.1356 39.6215C46.7346 39.7352 46.3229 39.8074 45.8996 39.8366C45.8851 39.8865 45.8735 39.9334 45.8659 39.9779C45.8582 40.0225 45.8543 40.0647 45.8543 40.1039C45.8543 40.203 45.8781 40.3044 45.9265 40.4081C45.9749 40.5118 46.0602 40.5971 46.1823 40.6639C46.3052 40.7307 46.4811 40.7637 46.7116 40.7637C47.0311 40.7637 47.3499 40.7008 47.6694 40.5748C47.989 40.4488 48.2855 40.2829 48.5605 40.077C48.8355 39.8719 49.0651 39.6499 49.251 39.4126L49.3847 39.4794C49.1842 39.7767 48.9261 40.0379 48.6104 40.2629C48.2947 40.488 47.9536 40.6639 47.5857 40.7899C47.217 40.9166 46.8475 40.9796 46.4765 40.9796ZM42.2333 39.6945C42.4338 39.6499 42.6604 39.5847 42.9124 39.4979C43.1651 39.4111 43.4078 39.3089 43.6421 39.1898C43.8764 39.0708 44.0692 38.9402 44.2213 38.7965C44.3734 38.6529 44.4494 38.5024 44.4494 38.3434C44.4494 38.2888 44.4348 38.2466 44.4049 38.2174C44.3749 38.1874 44.3119 38.1728 44.2159 38.1728C44.0377 38.1728 43.848 38.2189 43.6475 38.3103C43.447 38.4017 43.2542 38.5216 43.0683 38.6706C42.8824 38.8188 42.7157 38.9824 42.5667 39.1606C42.4185 39.3381 42.3071 39.5163 42.2333 39.6945ZM45.9534 39.6945C46.1539 39.6499 46.3728 39.5908 46.6109 39.5163C46.8483 39.4418 47.0749 39.3542 47.2907 39.2528C47.5058 39.1514 47.684 39.0354 47.8254 38.9041C47.9659 38.7727 48.0366 38.6283 48.0366 38.4701C48.0366 38.4156 48.0182 38.3695 47.9805 38.3326C47.9437 38.2957 47.8768 38.2773 47.78 38.2773C47.5427 38.2773 47.303 38.3464 47.0618 38.4855C46.8206 38.6237 46.6017 38.8012 46.4043 39.0162C46.2077 39.2305 46.0571 39.4571 45.9534 39.6945Z" fill="#3C4242"/>
<path d="M48.3151 42.6948C48.256 42.6948 48.1984 42.6741 48.1423 42.6319C48.0862 42.5896 48.044 42.5451 48.014 42.4982C47.9841 42.4513 47.9695 42.4229 47.9695 42.4129C48.0732 42.1702 48.1753 41.9536 48.276 41.7631C48.3766 41.5726 48.4764 41.3767 48.5771 41.1762C48.6769 40.9758 48.776 40.7407 48.872 40.4711C48.9688 40.2015 49.0687 39.8658 49.1731 39.4648C49.2768 39.0639 49.3813 38.5661 49.485 37.9724C49.4927 37.9278 49.5073 37.8955 49.5296 37.8756C49.5518 37.8556 49.6071 37.8456 49.6962 37.8456C49.889 37.8456 50.0265 37.8817 50.1087 37.9532C50.1902 38.0246 50.2309 38.1029 50.2309 38.1867C50.2309 38.2558 50.2086 38.3795 50.164 38.5577C50.1195 38.7359 50.0565 38.9463 49.9751 39.1891C50.1011 39.0255 50.2593 38.8596 50.4482 38.6913C50.6372 38.5231 50.8546 38.3818 51.0996 38.2681C51.3447 38.1544 51.612 38.0976 51.9016 38.0976C52.228 38.0976 52.4976 38.1759 52.7089 38.3311C52.9201 38.487 53.0261 38.6913 53.0261 38.944C53.0261 39.1368 52.9608 39.3412 52.831 39.5562C52.7012 39.7713 52.5191 39.9749 52.2856 40.1654C52.0521 40.3559 51.7748 40.511 51.456 40.6293C51.1365 40.7484 50.7839 40.8075 50.3983 40.8075C50.2048 40.8075 50.0496 40.7929 49.9305 40.763C49.8115 40.733 49.7523 40.7038 49.7523 40.6739C49.7523 40.6539 49.78 40.6432 49.836 40.6401C49.8921 40.6378 49.9566 40.6362 50.0312 40.6362C50.3284 40.6362 50.6119 40.5879 50.883 40.4911C51.1542 40.3943 51.3969 40.2668 51.6127 40.1085C51.8278 39.9503 51.9968 39.7744 52.1197 39.5816C52.2418 39.3888 52.3033 39.1983 52.3033 39.0101C52.3033 38.8519 52.2534 38.7167 52.1527 38.6053C52.0529 38.4939 51.8908 38.4386 51.668 38.4386C51.4752 38.4386 51.284 38.4793 51.0943 38.5607C50.9045 38.6422 50.7263 38.7466 50.5596 38.8726C50.3922 38.9986 50.2439 39.1299 50.1141 39.2659C49.9843 39.4019 49.886 39.5248 49.8191 39.6331C49.6855 40.0041 49.5518 40.362 49.4182 40.7061C49.2845 41.0503 49.1562 41.3621 49.0341 41.6417C48.9112 41.9213 48.8006 42.1502 48.7 42.3284C48.6001 42.5067 48.5164 42.6157 48.4496 42.6549C48.4112 42.6826 48.3666 42.6948 48.3151 42.6948Z" fill="#3C4242"/>
<path d="M57.0694 40.8083C56.7798 40.8083 56.564 40.7476 56.4234 40.6263C56.2821 40.5049 56.2122 40.3574 56.2122 40.1846C56.2122 40.0709 56.2437 39.9273 56.3066 39.7537C56.3696 39.5808 56.4534 39.3988 56.557 39.2083C56.6607 39.0178 56.7813 38.838 56.9188 38.6698C57.0563 38.5016 57.2031 38.3641 57.359 38.2573C57.5149 38.1513 57.667 38.0976 57.816 38.0976C57.8829 38.0976 57.9405 38.1114 57.9889 38.1383C58.0372 38.1652 58.0611 38.2066 58.0611 38.2604C58.0611 38.3196 58.0034 38.4163 57.8882 38.55C57.773 38.6836 57.6378 38.8373 57.4819 39.0101C57.326 39.1837 57.1908 39.365 57.0755 39.5555C56.9603 39.746 56.9027 39.928 56.9027 40.1016C56.9027 40.2798 56.9473 40.3989 57.0364 40.458C57.1255 40.5172 57.263 40.5471 57.4489 40.5471C57.7016 40.5471 57.9704 40.4634 58.2562 40.2944C58.5419 40.1262 58.8446 39.832 59.1641 39.4111L59.264 39.4856C59.0489 39.9111 58.7386 40.2383 58.3337 40.4657C57.9282 40.6946 57.5072 40.8083 57.0694 40.8083ZM58.4052 37.4078C58.2861 37.4078 58.1809 37.3878 58.0879 37.3486C57.995 37.3087 57.9489 37.2472 57.9489 37.1627C57.9489 37.059 58.0395 36.9684 58.2216 36.8916C58.4036 36.8148 58.5834 36.7764 58.7616 36.7764C58.873 36.7764 58.9621 36.794 59.0289 36.8286C59.0957 36.8632 59.1288 36.9231 59.1288 37.0068C59.1288 37.1005 59.0527 37.1912 58.9006 37.278C58.7493 37.3648 58.5842 37.4078 58.4052 37.4078Z" fill="#3C4242"/>
<path d="M59.8974 40.9573C59.5778 40.9573 59.3328 40.8951 59.1623 40.7714C58.9918 40.6478 58.9065 40.4649 58.9065 40.2222C58.9065 40.0048 58.9679 39.736 59.0901 39.4164C59.2122 39.0969 59.3666 38.7697 59.5525 38.4325C59.478 38.4225 59.4081 38.414 59.3413 38.4063C59.2744 38.3987 59.2114 38.3879 59.1523 38.3733V38.2396C59.2114 38.2443 59.2821 38.2496 59.3635 38.2542C59.445 38.2589 59.5379 38.2642 59.6416 38.2688C59.7975 38.0015 59.965 37.7427 60.1424 37.493C60.3206 37.2434 60.4973 37.0206 60.6717 36.8247C60.846 36.6296 61.0135 36.4729 61.1733 36.357C61.333 36.241 61.4682 36.1826 61.5796 36.1826C61.6388 36.1826 61.6925 36.1964 61.7409 36.2233C61.7893 36.2502 61.8131 36.2917 61.8131 36.3454C61.8131 36.4299 61.7355 36.5667 61.5796 36.7579C61.4237 36.9484 61.2309 37.175 61.0004 37.4369C60.77 37.6996 60.5472 37.9839 60.3322 38.2911C60.399 38.2911 60.4673 38.2911 60.538 38.2911C60.6087 38.2911 60.677 38.2911 60.7439 38.2911C60.9889 38.2911 61.247 38.2888 61.5182 38.2834C61.7893 38.2788 62.062 38.2658 62.337 38.2466V38.3802C61.9283 38.4102 61.5627 38.4325 61.2401 38.447C60.9175 38.4616 60.6294 38.4693 60.3767 38.4693C60.3467 38.4693 60.3191 38.4693 60.293 38.4693C60.2669 38.4693 60.2392 38.4693 60.2093 38.4693C60.0387 38.732 59.8935 39.0016 59.7753 39.2789C59.6562 39.5562 59.5971 39.8258 59.5971 40.0885C59.5971 40.3013 59.6454 40.4534 59.7415 40.5448C59.8375 40.6362 59.9972 40.6823 60.2208 40.6823C60.6071 40.6823 60.9858 40.5686 61.3568 40.3405C61.7279 40.1131 62.0543 39.8036 62.337 39.4126L62.4814 39.4871C62.3032 39.7644 62.0781 40.014 61.8077 40.2368C61.5366 40.4596 61.2378 40.6355 60.9113 40.7637C60.5841 40.8928 60.2469 40.9573 59.8974 40.9573Z" fill="#3C4242"/>
<path d="M66.2128 41.0311C65.8564 41.0311 65.5591 40.952 65.3217 40.7937C65.0844 40.6355 64.9653 40.3981 64.9653 40.0809C64.9653 39.8336 65.0375 39.5924 65.1827 39.3565C65.3271 39.1215 65.5184 38.9103 65.7565 38.7221C65.9939 38.5339 66.2573 38.3841 66.5469 38.2727C66.8365 38.1613 67.1223 38.106 67.4049 38.106C67.7091 38.106 67.9173 38.1652 68.0287 38.2842C68.14 38.4033 68.1953 38.527 68.1953 38.6552C68.1953 38.7989 68.1454 38.9249 68.0448 39.0339C67.9449 39.143 67.809 39.1975 67.6384 39.1975C67.5125 39.1975 67.4049 39.1607 67.3151 39.0862C67.4264 39.047 67.5232 38.9663 67.6046 38.845C67.6861 38.7236 67.7275 38.6084 67.7275 38.4993C67.7275 38.4402 67.7106 38.3941 67.6776 38.3618C67.6438 38.3295 67.5793 38.3134 67.4825 38.3134C67.282 38.3134 67.0762 38.3726 66.8642 38.4916C66.6529 38.6107 66.4555 38.7635 66.2742 38.9517C66.0922 39.1399 65.9439 39.3381 65.8287 39.5455C65.7135 39.7537 65.6559 39.9488 65.6559 40.1324C65.6559 40.286 65.712 40.4266 65.8233 40.5556C65.9347 40.6839 66.1498 40.7484 66.4693 40.7484C66.7666 40.7484 67.0654 40.6939 67.3658 40.5848C67.6661 40.4757 67.9465 40.3198 68.2069 40.117C68.4665 39.9142 68.6747 39.6761 68.8306 39.4042L68.975 39.4787C68.8045 39.7759 68.5702 40.0417 68.2737 40.2768C67.9764 40.5118 67.65 40.6962 67.2935 40.8298C66.9364 40.9642 66.5761 41.0311 66.2128 41.0311Z" fill="#3C4242"/>
<path d="M69.5431 40.8383C69.2236 40.8383 68.9955 40.7653 68.858 40.6193C68.7205 40.4734 68.6521 40.2914 68.6521 40.074C68.6521 39.8366 68.7189 39.5539 68.8526 39.2275C68.9862 38.901 69.1629 38.5569 69.3818 38.1951C69.6007 37.8341 69.8404 37.4815 70.1 37.1366C70.3597 36.7925 70.6193 36.4799 70.8797 36.1972C71.1393 35.9153 71.379 35.6895 71.5979 35.5212C71.8168 35.353 71.9896 35.2685 72.1156 35.2685C72.197 35.2685 72.2639 35.2993 72.3161 35.3615C72.3683 35.4237 72.409 35.4974 72.439 35.5842C72.4682 35.671 72.4836 35.7486 72.4836 35.8177C72.4836 35.9514 72.4336 36.1258 72.333 36.3416C72.2331 36.5567 72.0918 36.7971 71.9098 37.0621C71.7277 37.3271 71.5126 37.5944 71.2638 37.864C71.0149 38.1337 70.7437 38.3925 70.4511 38.6399C70.1576 38.8872 69.8481 39.1 69.5209 39.2782C69.4763 39.4118 69.441 39.5417 69.4149 39.6684C69.3887 39.7944 69.3757 39.915 69.3757 40.0287C69.3757 40.2215 69.4164 40.3651 69.4978 40.4596C69.5792 40.5533 69.7021 40.6009 69.8658 40.6009C70.0662 40.6009 70.2652 40.5418 70.4618 40.4227C70.6585 40.3036 70.8444 40.1539 71.0187 39.9733C71.1931 39.7928 71.3436 39.6062 71.4696 39.4126L71.6363 39.4718C71.339 39.8927 71.0164 40.2253 70.6669 40.4703C70.319 40.7161 69.9441 40.8383 69.5431 40.8383ZM69.6215 39.0262C69.8811 38.8526 70.1338 38.6537 70.3789 38.4286C70.6239 38.2036 70.852 37.9693 71.064 37.7273C71.276 37.4846 71.4635 37.2495 71.6263 37.0222C71.7892 36.7948 71.9159 36.5905 72.005 36.41C72.0941 36.2295 72.1387 36.0897 72.1387 35.9906C72.1387 35.9414 72.1294 35.9091 72.111 35.8938C72.0926 35.8792 72.0757 35.8715 72.0611 35.8715C72.0019 35.8715 71.8998 35.9345 71.7546 36.0605C71.6102 36.1864 71.4412 36.3562 71.2476 36.569C71.0548 36.7817 70.8582 37.0245 70.6577 37.2964C70.4572 37.5683 70.2659 37.8533 70.0839 38.1506C69.9011 38.4471 69.7475 38.7397 69.6215 39.0262Z" fill="#3C4242"/>
<path d="M71.7817 40.9643C71.5513 40.9643 71.3562 40.9136 71.1972 40.8122C71.0374 40.7108 70.9575 40.5564 70.9575 40.3482C70.9575 40.17 71.0167 39.978 71.1357 39.7729C71.254 39.5678 71.4176 39.3642 71.6258 39.1637C71.834 38.9633 72.0698 38.7804 72.3333 38.6145C72.5967 38.4486 72.8748 38.3165 73.169 38.2174C73.4624 38.1183 73.7535 38.0692 74.0431 38.0692C74.3327 38.0692 74.5739 38.1198 74.7667 38.2212C74.9595 38.3226 75.0563 38.4578 75.0563 38.6261C75.0563 38.7497 75.0064 38.8342 74.9057 38.8788C74.8051 38.9233 74.6738 38.9456 74.5101 38.9456C74.5247 38.9056 74.5378 38.8626 74.5493 38.8158C74.5608 38.7689 74.5662 38.7259 74.5662 38.686C74.5662 38.5723 74.5255 38.4747 74.4441 38.3925C74.3619 38.3111 74.2213 38.2704 74.0208 38.2704C73.8127 38.2704 73.6014 38.3188 73.3856 38.4148C73.1705 38.5116 72.9624 38.6399 72.7619 38.8012C72.5614 38.9625 72.3832 39.1369 72.2272 39.3251C72.0713 39.5132 71.9492 39.6991 71.8593 39.8819C71.7702 40.0648 71.7257 40.2284 71.7257 40.372C71.7257 40.5648 71.8255 40.6616 72.0268 40.6616C72.1973 40.6616 72.3832 40.6086 72.5837 40.5018C72.7841 40.3958 72.99 40.2591 73.202 40.0932C73.4132 39.9273 73.616 39.7552 73.8088 39.577C74.0016 39.3988 74.1729 39.2352 74.3212 39.0869C74.3504 39.057 74.3696 39.0424 74.3765 39.0424C74.421 39.047 74.4786 39.057 74.5493 39.0723C74.62 39.0869 74.6814 39.1069 74.7329 39.1315C74.7851 39.1561 74.8113 39.1883 74.8113 39.2283C74.8113 39.2728 74.7775 39.3335 74.7106 39.4103C74.6438 39.4871 74.5693 39.5747 74.4879 39.6738C74.4057 39.7729 74.3319 39.8735 74.2651 39.9749C74.1983 40.0763 74.1653 40.1715 74.1653 40.2606C74.1653 40.3351 74.1944 40.4081 74.2544 40.4796C74.3135 40.5518 74.4103 40.5871 74.5439 40.5871C74.7444 40.5871 75.0079 40.4895 75.3344 40.2937C75.6608 40.0986 75.9919 39.8051 76.326 39.4134L76.4374 39.4879C76.2815 39.7552 76.081 39.9903 75.8359 40.193C75.5909 40.3958 75.329 40.5548 75.0509 40.6685C74.7728 40.7822 74.4994 40.839 74.2321 40.839C73.9571 40.839 73.7551 40.7845 73.6253 40.6754C73.4954 40.5664 73.4301 40.4481 73.4301 40.319C73.4301 40.2891 73.434 40.256 73.4417 40.2192C73.4486 40.1823 73.4563 40.1439 73.4639 40.1039C73.1444 40.3912 72.8533 40.6063 72.5898 40.7499C72.3256 40.8928 72.056 40.9643 71.7817 40.9643Z" fill="#3C4242"/>
<path d="M77.2728 40.9942C76.924 40.9942 76.6475 40.9435 76.4432 40.8421C76.2388 40.7407 76.0944 40.6155 76.0084 40.4673C75.9231 40.319 75.8801 40.17 75.8801 40.0217C75.8801 39.8735 75.9101 39.759 75.9692 39.6799C76.0291 39.6008 76.1013 39.5417 76.1866 39.5017C76.2719 39.4618 76.3533 39.4326 76.4316 39.4126C76.51 39.3926 76.563 39.3727 76.593 39.3535C76.8157 39.1899 77.02 39.0193 77.2059 38.8411C77.3918 38.6629 77.5547 38.4747 77.696 38.2765V38.1874C77.696 38.0046 77.7421 37.874 77.835 37.7972C77.928 37.7204 78.0263 37.682 78.13 37.682C78.1891 37.682 78.2337 37.692 78.2636 37.712C78.2936 37.7319 78.3082 37.7542 78.3082 37.7788C78.3082 37.8034 78.2974 37.8433 78.2752 37.8979C78.2529 37.9524 78.2414 38.0215 78.2414 38.106C78.2414 38.2696 78.2898 38.4463 78.3858 38.6368C78.4826 38.8273 78.5786 39.0278 78.6754 39.2382C78.7714 39.4487 78.8198 39.6676 78.8198 39.895C78.8198 39.9595 78.8144 40.0225 78.8029 40.084C78.7921 40.1462 78.7752 40.2038 78.753 40.2583C79.0126 40.2284 79.2576 40.1508 79.4881 40.0248C79.7185 39.8988 79.9413 39.6968 80.1563 39.4195L80.2562 39.494C80.1149 39.766 79.9036 39.9726 79.6217 40.1139C79.3398 40.2553 79.031 40.3428 78.6969 40.3774C78.5778 40.5902 78.3904 40.7461 78.1346 40.8452C77.8796 40.945 77.5915 40.9942 77.2728 40.9942ZM77.295 40.7346C77.3841 40.7346 77.5032 40.7146 77.6514 40.6754C77.7997 40.6355 77.9149 40.5341 77.9971 40.3712C77.6852 40.3321 77.4087 40.2499 77.1675 40.1262C76.9263 40.0025 76.7458 39.8789 76.6275 39.7552C76.4639 39.7606 76.3825 39.8466 76.3825 40.0148C76.3825 40.193 76.4624 40.3574 76.6221 40.5087C76.7804 40.6585 77.0054 40.7346 77.295 40.7346ZM78.0524 40.2514C78.067 40.2023 78.0785 40.15 78.0854 40.0955C78.0931 40.041 78.097 39.9764 78.097 39.9027C78.097 39.6699 78.0539 39.4387 77.9687 39.2083C77.8834 38.9778 77.8112 38.7612 77.7513 38.5585C77.5808 38.7466 77.4003 38.9264 77.2113 39.0969C77.0223 39.2674 76.8418 39.4103 76.6713 39.524C76.7827 39.6822 76.9555 39.8312 77.189 39.9695C77.4233 40.1085 77.7106 40.2023 78.0524 40.2514Z" fill="#3C4242"/>
<path d="M81.1146 40.9942C80.7658 40.9942 80.4893 40.9435 80.285 40.8421C80.0806 40.7407 79.9362 40.6155 79.8502 40.4673C79.7649 40.319 79.7219 40.17 79.7219 40.0217C79.7219 39.8735 79.7519 39.759 79.811 39.6799C79.8709 39.6008 79.9431 39.5417 80.0284 39.5017C80.1137 39.4618 80.1951 39.4326 80.2734 39.4126C80.3518 39.3926 80.4048 39.3727 80.4348 39.3535C80.6575 39.1899 80.8618 39.0193 81.0477 38.8411C81.2336 38.6629 81.3965 38.4747 81.5378 38.2765V38.1874C81.5378 38.0046 81.5839 37.874 81.6768 37.7972C81.7698 37.7204 81.8681 37.682 81.9718 37.682C82.0309 37.682 82.0755 37.692 82.1054 37.712C82.1354 37.7319 82.15 37.7542 82.15 37.7788C82.15 37.8034 82.1392 37.8433 82.117 37.8979C82.0947 37.9524 82.0832 38.0215 82.0832 38.106C82.0832 38.2696 82.1316 38.4463 82.2276 38.6368C82.3244 38.8273 82.4204 39.0278 82.5172 39.2382C82.6132 39.4487 82.6616 39.6676 82.6616 39.895C82.6616 39.9595 82.6562 40.0225 82.6447 40.084C82.6339 40.1462 82.617 40.2038 82.5947 40.2583C82.8544 40.2284 83.0994 40.1508 83.3299 40.0248C83.5603 39.8988 83.783 39.6968 83.9981 39.4195L84.098 39.494C83.9566 39.766 83.7454 39.9726 83.4635 40.1139C83.1816 40.2553 82.8728 40.3428 82.5387 40.3774C82.4196 40.5902 82.2322 40.7461 81.9764 40.8452C81.7221 40.945 81.4341 40.9942 81.1146 40.9942ZM81.1368 40.7346C81.2259 40.7346 81.345 40.7146 81.4932 40.6754C81.6415 40.6355 81.7567 40.5341 81.8389 40.3712C81.527 40.3321 81.2505 40.2499 81.0093 40.1262C80.7681 40.0025 80.5876 39.8789 80.4693 39.7552C80.3057 39.7606 80.2243 39.8466 80.2243 40.0148C80.2243 40.193 80.3042 40.3574 80.4639 40.5087C80.6229 40.6585 80.8472 40.7346 81.1368 40.7346ZM81.8942 40.2514C81.9088 40.2023 81.9203 40.15 81.9272 40.0955C81.9349 40.041 81.9388 39.9764 81.9388 39.9027C81.9388 39.6699 81.8957 39.4387 81.8105 39.2083C81.7252 38.9778 81.653 38.7612 81.5931 38.5585C81.4226 38.7466 81.2421 38.9264 81.0531 39.0969C80.8641 39.2674 80.6836 39.4103 80.5131 39.524C80.6245 39.6822 80.7973 39.8312 81.0308 39.9695C81.2651 40.1085 81.5532 40.2023 81.8942 40.2514Z" fill="#3C4242"/>
<path d="M84.2673 42.6949C84.0814 42.6949 83.9185 42.6618 83.7772 42.595C83.6358 42.5282 83.5652 42.4306 83.5652 42.3016C83.5652 42.1433 83.6251 42.002 83.7434 41.8783C83.8617 41.7547 84.0215 41.641 84.2227 41.5365C84.4232 41.4328 84.6529 41.3337 84.9133 41.2392C85.1729 41.1455 85.444 41.0511 85.7259 40.9573C85.8296 40.7745 85.9356 40.5702 86.0432 40.3451C86.1507 40.1201 86.2529 39.8712 86.3497 39.5993C86.1123 39.8566 85.8581 40.0778 85.5869 40.2637C85.3158 40.4496 85.0277 40.5418 84.7235 40.5418C84.5822 40.5418 84.4432 40.521 84.3057 40.4788C84.1682 40.4365 84.0553 40.3713 83.9661 40.2822C83.877 40.193 83.8325 40.0794 83.8325 39.9403C83.8325 39.8021 83.8678 39.6408 83.9385 39.4579C84.0092 39.2751 84.096 39.0969 84.2004 38.9233C84.3041 38.7505 84.4117 38.6068 84.5238 38.4924C84.636 38.3779 84.732 38.3219 84.8134 38.3219C84.8434 38.3219 84.8971 38.3295 84.9747 38.3441C85.0531 38.3587 85.1268 38.3802 85.1975 38.4071C85.2681 38.4348 85.3035 38.4632 85.3035 38.4924C85.2366 38.5569 85.1621 38.6483 85.0807 38.7674C84.9985 38.8864 84.9194 39.0186 84.8411 39.1645C84.7635 39.3105 84.6982 39.4526 84.6459 39.5916C84.5937 39.7299 84.5684 39.8489 84.5684 39.948C84.5684 40.0371 84.5976 40.1085 84.6575 40.1631C84.7166 40.2176 84.8211 40.2445 84.9693 40.2445C85.1099 40.2445 85.2681 40.1992 85.4425 40.107C85.6169 40.0156 85.7912 39.8981 85.9664 39.7544C86.1407 39.6108 86.302 39.4572 86.4511 39.2943C86.4733 39.2398 86.4933 39.1845 86.5125 39.1276C86.531 39.0708 86.5478 39.0124 86.5624 38.9533C86.5847 38.8841 86.6385 38.8035 86.7238 38.7121C86.809 38.6207 86.945 38.5746 87.1301 38.5746C87.167 38.5746 87.2038 38.5761 87.2415 38.5784C87.2783 38.5807 87.3191 38.5869 87.3636 38.5969C87.3636 38.676 87.3283 38.8235 87.2576 39.0385C87.1869 39.2536 87.0863 39.5056 86.9565 39.7921C86.8267 40.0794 86.6723 40.3736 86.4941 40.6754C86.8428 40.5863 87.1846 40.4388 87.5188 40.2338C87.8529 40.0287 88.1241 39.7544 88.3315 39.4134L88.4759 39.4879C88.3645 39.7253 88.1955 39.9319 87.9689 40.1078C87.7423 40.2837 87.488 40.4342 87.2061 40.561C86.9242 40.687 86.6454 40.7922 86.3704 40.8767C86.1776 41.1932 85.9679 41.4904 85.7413 41.7677C85.5147 42.045 85.2774 42.2693 85.0285 42.4398C84.7811 42.6096 84.5269 42.6949 84.2673 42.6949ZM84.2112 42.4567C84.3226 42.4567 84.51 42.3592 84.7735 42.1633C85.0369 41.9674 85.3173 41.6248 85.6146 41.1348C85.3104 41.2439 85.0277 41.3514 84.7681 41.4582C84.5084 41.5642 84.3003 41.6794 84.1444 41.8038C83.9884 41.9275 83.9108 42.0711 83.9108 42.2347C83.9108 42.2747 83.9331 42.3215 83.9777 42.3761C84.0222 42.4299 84.0998 42.4567 84.2112 42.4567Z" fill="#3C4242"/>
<path d="M88.5659 40.69C88.4691 40.69 88.3861 40.6739 88.3155 40.6416C88.2448 40.6094 88.2095 40.5587 88.2095 40.4895C88.2095 40.435 88.2425 40.3843 88.3093 40.3375C88.3762 40.2906 88.4599 40.253 88.5597 40.2261C88.6596 40.1992 88.7579 40.1854 88.8547 40.1854C88.9438 40.1854 89.0145 40.1977 89.0659 40.2222C89.1174 40.2468 89.1435 40.2944 89.1435 40.3636C89.1435 40.4135 89.1159 40.4627 89.0598 40.5118C89.0037 40.561 88.9315 40.6032 88.8424 40.6378C88.7533 40.6724 88.6627 40.69 88.5659 40.69Z" fill="#3C4242"/>
</svg>
