<svg width="92" height="35" viewBox="0 0 92 35" fill="none" xmlns="http://www.w3.org/2000/svg">
<path d="M3.45968 20.8074C3.7258 20.7575 4.02519 20.7242 4.35784 20.7242C4.40774 18.9778 5.4057 16.0837 6.47018 13.0899C5.47223 12.9402 4.62396 12.9402 4.10835 13.2894C3.74244 11.8424 5.12294 11.5597 7.01906 11.5929C8.00038 8.81527 8.94844 6.10416 9.14803 4.2912C7.56794 4.19141 6.1708 4.35773 5.28927 5.35569C5.00651 5.65508 4.24141 1.87947 7.701 1.24743C10.5119 0.731824 16.4996 3.02712 18.3791 0.382539C18.6619 -1.08853e-05 18.8947 3.45957 17.0153 4.391C15.8177 4.97314 14.2376 4.90661 12.591 4.70702C12.3581 6.30375 11.4932 8.94833 10.5951 11.8258C12.5577 11.9588 14.2875 11.9422 14.6534 11.0108C15.2356 14.487 12.7573 14.3706 9.9963 13.8051C9.2312 16.3665 8.51599 18.9612 8.24987 21.0735C10.6616 21.3563 13.0733 21.4561 14.1378 19.9425C14.4206 19.5599 14.6534 23.0195 12.7739 23.9343C9.48068 25.5643 3.40978 22.2378 1.04795 24.899C0.765199 25.1984 9.88767e-05 21.4228 3.45968 20.8074ZM17.481 10.5783C17.4643 10.5118 21.1568 10.1791 21.0902 12.3081C21.0403 13.672 17.8469 20.6577 18.5122 22.9031C20.1422 20.824 24.4833 10.5783 24.4833 10.5783C24.4667 10.5118 28.1591 10.1791 28.0759 12.3081C28.026 13.6886 25.2318 19.2605 25.5145 23.0029C26.7952 21.6556 28.3421 17.9466 28.6248 17.248C28.6581 17.1815 28.7246 17.1482 28.7911 17.1482C28.9242 17.1482 29.0074 17.2646 28.9741 17.3811C28.5749 18.6119 26.9117 23.6848 26.0468 24.2004C25.0488 24.8158 22.3377 23.7846 22.0882 22.6536C21.6059 20.5579 23.635 15.5681 24.317 12.5576C22.9864 16.0338 19.9093 23.8345 18.8448 24.3002C17.8635 24.716 15.2023 23.8678 14.9861 22.5372C14.5869 20.1254 17.9966 12.5077 17.481 10.5783ZM24.8825 32.3338C24.2005 28.1424 30.5542 14.0379 29.8889 10.5451C29.8723 10.4785 33.7144 10.5451 33.4815 12.6574C33.2653 14.6699 30.4045 22.6037 29.0573 28.5083C31.469 19.5599 36.1095 11.0939 36.8247 10.6781C37.4734 10.2956 39.4693 10.8611 40.2843 12.2915C41.382 14.2209 39.0535 23.5351 35.1947 24.3169C34.3298 24.4998 32.284 23.2191 31.8682 22.7035C30.4378 26.3793 29.1072 30.4876 28.4751 34.2798C28.392 34.679 25.1652 34.0636 24.8825 32.3338ZM37.174 11.726C36.9578 11.6428 34.3963 16.2833 32.0511 22.2212C35.1282 23.9509 37.9557 12.042 37.174 11.726ZM39.9516 22.4041C39.2697 18.1961 45.7065 3.60926 45.2741 0.498967C45.2574 0.432437 48.7835 0.615396 48.5507 2.72774C48.3178 4.90661 44.9414 14.0878 43.8104 20.0755C45.4237 16.0837 48.2347 10.3787 49.848 10.5284C50.7794 10.6116 52.6589 11.4931 52.8253 12.0586C53.291 13.6221 50.031 20.7575 49.9644 23.1193C51.2618 21.8719 52.8918 17.9632 53.1745 17.248C53.2078 17.1815 53.2743 17.1482 53.3409 17.1482C53.4739 17.1482 53.5571 17.2646 53.5238 17.3811C53.1246 18.6119 51.2951 24.2503 50.5632 24.3501C49.1162 24.5497 46.6712 23.5019 46.4716 22.1879C46.2221 20.4082 49.0663 14.6367 49.349 11.8424C48.5174 11.7093 43.511 21.7222 43.5443 24.3002C43.6441 24.7659 40.251 24.1672 39.9516 22.4041ZM52.975 22.1713C51.9936 19.3936 54.2224 12.4412 56.7339 10.8278C57.5988 10.2623 59.944 10.412 60.6925 10.911C61.3412 11.3268 60.9253 11.726 60.9253 11.726C58.2142 10.4619 55.0208 22.2378 56.2682 23.3854C57.7152 24.716 61.1582 13.8217 59.0791 13.3892C59.0791 13.3892 60.0438 12.0254 60.8754 12.1252C63.7529 12.5077 61.574 22.2877 57.5489 24.1838C56.4512 24.6994 53.8399 24.5996 52.975 22.1713ZM61.6904 22.5704C61.258 19.9259 64.5346 12.4744 64.0024 10.5451C63.9857 10.4785 67.8778 10.1791 67.8112 12.3081C67.7613 13.5057 65.649 17.8634 65.2831 21.4394C66.5472 17.5141 69.4412 10.3621 71.2376 10.5284C72.169 10.6116 73.799 11.3767 73.9653 11.9256C74.1815 12.6574 71.9528 16.1503 72.5515 18.3125C67.595 18.0963 70.8051 12.4911 70.7386 11.8424C69.9069 11.7093 65.4494 21.6224 65.466 24.2171C65.4827 24.3169 65.3662 24.3834 65.2831 24.3668C64.5679 24.2836 61.9067 23.901 61.6904 22.5704ZM78.9218 10.2789C74.1649 9.6469 77.192 6.96905 76.9924 5.206C82.1485 6.03763 78.506 7.81731 78.9218 10.2789ZM72.5349 22.5704C72.0692 20.0256 75.4955 12.4744 74.9799 10.5451C74.9633 10.4785 78.822 10.1791 78.7555 12.3081C78.7056 13.6886 75.9446 19.1774 76.1774 22.9197C77.4415 21.506 78.9385 17.9299 79.2212 17.248C79.2378 17.1815 79.3044 17.1482 79.3875 17.1482C79.504 17.1482 79.5871 17.2646 79.5539 17.3811C79.1713 18.6119 77.3584 23.9343 76.56 24.3169C75.745 24.6828 72.7511 23.8179 72.5349 22.5704ZM82.4812 24.3002C81.8824 24.716 79.1879 23.9842 78.5725 22.8698C77.7742 21.4394 79.7701 14.1876 81.5997 11.8424C83.0301 10.0295 86.1237 10.4785 86.8556 10.911C87.0385 11.0108 87.1051 11.1106 87.0053 11.3933C86.8888 11.7093 86.656 11.6428 86.2901 11.543C84.4272 11.0607 81.6329 21.2731 81.8159 23.3522L87.7537 10.7114C87.9533 10.1625 91.4794 11.0773 91.1468 11.7759C90.8141 12.4744 88.3858 20.7575 88.3192 23.1193C89.6166 21.8719 91.2632 17.9632 91.546 17.248C91.5792 17.1815 91.6458 17.1482 91.7123 17.1482C91.8287 17.1482 91.9285 17.2646 91.8786 17.3811C91.4961 18.6119 89.6665 24.2503 88.9347 24.3501C87.471 24.5497 85.026 23.5019 84.843 22.1879C84.6767 21.0735 85.5915 17.6306 86.4398 14.803C84.9761 18.5952 82.8139 24.0674 82.4812 24.3002Z" fill="#3C4242"/>
</svg>
