<svg width="16" height="16" viewBox="0 0 16 16" fill="none" xmlns="http://www.w3.org/2000/svg">
<path d="M14.3863 15.447C14.6792 15.7399 15.1541 15.7399 15.447 15.447C15.7399 15.1541 15.7399 14.6792 15.447 14.3863L14.3863 15.447ZM11.6667 6.58334C11.6667 9.39078 9.39078 11.6667 6.58334 11.6667V13.1667C10.2192 13.1667 13.1667 10.2192 13.1667 6.58334H11.6667ZM6.58334 11.6667C3.77589 11.6667 1.5 9.39078 1.5 6.58334H0C0 10.2192 2.94746 13.1667 6.58334 13.1667V11.6667ZM1.5 6.58334C1.5 3.77589 3.77589 1.5 6.58334 1.5V0C2.94746 0 0 2.94746 0 6.58334H1.5ZM6.58334 1.5C9.39078 1.5 11.6667 3.77589 11.6667 6.58334H13.1667C13.1667 2.94746 10.2192 0 6.58334 0V1.5ZM10.2197 11.2803L14.3863 15.447L15.447 14.3863L11.2803 10.2197L10.2197 11.2803Z" fill="#807D7E"/>
</svg>
